<svg xmlns="http://www.w3.org/2000/svg" width="64" height="64" viewBox="0 0 64 64">
  <defs>
    <linearGradient id="g" x1="12%" y1="18%" x2="88%" y2="82%">
      <stop offset="0" stop-color="#3f37c9" />
      <stop offset="1" stop-color="#4cc9f0" />
    </linearGradient>
    <filter id="shadow" x="-20%" y="-20%" width="140%" height="140%" color-interpolation-filters="sRGB">
      <feDropShadow dx="0" dy="6" stdDeviation="6" flood-color="#030712" flood-opacity="0.4" />
    </filter>
  </defs>
  <rect x="6" y="6" width="52" height="52" rx="16" fill="#050b1d" />
  <path d="M41.8 18.2c-2.4-2.1-5.8-3.5-9.8-3.5-9.6 0-17.2 7.5-17.2 17.4s7.5 17.4 17.2 17.4c4.2 0 7.6-1.2 10.4-3.8l-5.4-5.2c-1.2 1-2.7 1.7-4.8 1.7-4.3 0-7.4-3.3-7.4-7.2s3.1-7.2 7.4-7.2c1.8 0 3.1.5 4.5 1.5l5.1-5.2z" fill="url(#g)" filter="url(#shadow)" />
</svg>
